Coordinates
version=1
nRows=29
nColumns=24
inDegrees=yes

Units are S.I. units (second, meters, Newtons, ...)
Angles are in degrees.

endheader
time	pelvis_tilt	pelvis_list	pelvis_rotation	pelvis_tx	pelvis_ty	pelvis_tz	hip_flexion_r	hip_adduction_r	hip_rotation_r	knee_angle_r	ankle_angle_r	subtalar_angle_r	mtp_angle_r	hip_flexion_l	hip_adduction_l	hip_rotation_l	knee_angle_l	ankle_angle_l	subtalar_angle_l	mtp_angle_l	lumbar_extension	lumbar_bending	lumbar_rotation
      3.77000000	    -11.90859320	      8.86092190	     -2.79536349	     -0.90429508	     -0.04012702	     -0.29658768	     14.09460720	    -13.46943480	     -6.81514813	    -58.18176360	    -27.66688655	    -20.72975186	      7.68540070	     30.78806511	      9.45923965	     -4.92955767	    -24.44667450	     -1.82242984	    -16.47435949	     -1.16243390	      9.79737854	     -8.95960848	      4.00794261
      3.77500000	    -11.79638120	      8.81580253	     -2.66189100	     -0.89699797	     -0.03897280	     -0.29717366	     15.01179022	    -13.36733469	     -6.67600670	    -59.28291734	    -26.92622698	    -21.37036778	      7.73880442	     30.03353402	      9.60355691	     -4.65964083	    -24.20716411	     -1.46016149	    -16.44194268	     -1.05507228	      9.58726138	     -8.94697127	      3.72304209
      3.78000000	    -11.83567434	      8.73644567	     -2.59714743	     -0.88967273	     -0.03797996	     -0.29762681	     16.12764423	    -13.19272159	     -6.45277972	    -60.33593916	    -25.88761335	    -21.58124546	      7.68453237	     29.45615062	      9.63476036	     -4.55620941	    -23.99622046	     -1.01080571	    -16.28434406	     -0.87517099	      9.57447760	     -8.87555561	      3.47254157
      3.78500000	    -11.82865927	      8.58259143	     -2.54973698	     -0.88242464	     -0.03684814	     -0.29810906	     17.17087004	    -12.93460267	     -6.27180261	    -61.23938609	    -24.90401578	    -21.70295690	      7.70951961	     28.81199768	      9.60884538	     -4.32734741	    -23.76009542	     -0.62637899	    -16.24390052	     -0.76198145	      9.49648742	     -8.71488656	      3.26775357
      3.79000000	    -11.80862960	      8.39920378	     -2.51279597	     -0.87518716	     -0.03565470	     -0.29857823	     18.17907720	    -12.64757372	     -6.12875257	    -62.01468125	    -23.91991779	    -21.68206262	      7.85651599	     28.14359484	      9.55076883	     -4.08277238	    -23.50689791	     -0.27018700	    -16.22229467	     -0.69403884	      9.40778634	     -8.51856218	      3.05504191
      3.79500000	    -11.78958385	      8.19366034	     -2.48036214	     -0.86798799	     -0.03444588	     -0.29906273	     19.17330624	    -12.34408702	     -6.01570426	    -62.68132256	    -22.90189040	    -21.47574889	      8.12698301	     27.47369772	      9.47025846	     -3.82380205	    -23.24526179	      0.06339827	    -16.22550069	     -0.67775267	      9.31870718	     -8.29384228	      2.83934324
      3.80000000	    -11.76652229	      7.96874076	     -2.44891760	     -0.86079924	     -0.03321017	     -0.29955298	     20.13873983	    -12.02569707	     -5.93389410	    -63.23155464	    -21.86706952	    -21.11827829	      8.53036684	     26.78973901	      9.37231157	     -3.53790941	    -22.96590399	      0.37298646	    -16.25384910	     -0.72265867	      9.22749136	     -8.04412518	      2.62060969
      3.80500000	    -11.73979606	      7.76044127	     -2.40687031	     -0.85360246	     -0.03199064	     -0.30011070	     21.08006561	    -11.74998015	     -5.88985108	    -63.68010497	    -20.81181145	    -20.60827138	      9.13358134	     26.08544732	      9.30435051	     -3.21252846	    -22.65581273	      0.68845069	    -16.30223793	     -0.85744410	      9.13976635	     -7.80543201	      2.40927749
      3.81000000	    -11.68415449	      7.58894467	     -2.43799955	     -0.84648849	     -0.03072010	     -0.30066895	     21.99428132	    -11.49277842	     -5.75142886	    -63.99100185	    -19.95401887	    -20.11112819	     10.96500306	     25.33719099	      9.26934542	     -2.89881761	    -22.30024860	      0.95851210	    -16.53281785	     -1.71889632	      9.02289585	     -7.57730775	      2.28783345
      3.81500000	    -11.64878067	      7.26377763	     -2.31074057	     -0.83927931	     -0.02943190	     -0.30124133	     22.80774139	    -11.11691766	     -5.87667634	    -64.15763496	    -18.96758058	    -19.55932366	     11.71679626	     24.61046619	      9.09189975	     -2.51558314	    -21.99645325	      1.37656258	    -16.37040771	     -1.80824697	      8.91791241	     -7.23951758	      1.96283161
      3.82000000	    -11.58183424	      6.99146447	     -2.25709038	     -0.83216392	     -0.02810131	     -0.30191144	     23.58260629	    -10.78949771	     -5.88490913	    -64.13421409	    -18.45954271	    -19.23515792	     15.05004654	     23.83894554	      8.97787867	     -2.12800283	    -21.65422660	      1.81347025	    -16.41191389	     -3.06393625	      8.77790598	     -6.91615460	      1.71712115
      3.82500000	    -11.53378122	      6.70760882	     -2.19159288	     -0.82505667	     -0.02684917	     -0.30241636	     24.37822746	    -10.44152939	     -5.97097467	    -64.13805005	    -17.36534613	    -18.55126564	     15.53092271	     23.08305232	      8.80824449	     -1.84875107	    -21.27028421	      2.06491609	    -16.40860313	     -3.06724151	      8.66229635	     -6.60479355	      1.48530817
      3.83000000	    -11.47364794	      6.40840772	     -2.11419370	     -0.81802071	     -0.02558220	     -0.30293176	     25.12946680	    -10.07562185	     -6.07211263	    -64.02915919	    -16.31447594	    -17.89394397	     16.09751203	     22.31158529	      8.62578051	     -1.55551152	    -20.86612606	      2.24651197	    -16.46498193	     -3.13535327	      8.51807278	     -6.27758565	      1.21240941
      3.83500000	    -11.40154040	      6.13120584	     -2.01594461	     -0.81093728	     -0.02434919	     -0.30349885	     25.83280433	     -9.75619681	     -6.20492213	    -63.81881572	    -15.28544223	    -17.23865590	     16.79341192	     21.50532085	      8.47179951	     -1.24796195	    -20.42236354	      2.44367810	    -16.50453296	     -3.23651825	      8.36998232	     -5.97244038	      0.95584135
      3.84000000	    -11.22601544	      5.93606271	     -1.98999495	     -0.80382878	     -0.02302427	     -0.30411480	     26.41348655	     -9.51388918	     -6.22679970	    -63.44991710	    -14.63694342	    -16.78955043	     19.17105892	     20.52943580	      8.41298219	     -0.88854957	    -19.86335036	      2.58692586	    -16.74536114	     -3.90921445	      8.12669161	     -5.72637322	      0.79881823
      3.84500000	    -11.25019180	      5.57799532	     -1.79860442	     -0.79682603	     -0.02199280	     -0.30469575	     27.14007428	     -9.13368051	     -6.50065708	    -63.03552141	    -13.76792430	    -16.37715381	     19.69151980	     19.86879353	      8.15602873	     -0.64492685	    -19.49604815	      2.95162228	    -16.48946649	     -3.88099201	      8.05786477	     -5.35623939	      0.46944931
      3.85000000	    -11.18243469	      5.27941703	     -1.68141500	     -0.78983081	     -0.02088178	     -0.30521131	     27.76688154	     -8.78427970	     -6.66050847	    -62.53729571	    -12.93024619	    -15.91334343	     20.25539592	     19.06818846	      7.94996399	     -0.40147475	    -19.02873241	      3.14187350	    -16.43990798	     -3.94135851	      7.89687363	     -5.03593700	      0.18033490
      3.85500000	    -11.10940296	      4.98852921	     -1.55444854	     -0.78282487	     -0.01982264	     -0.30576005	     28.35942972	     -8.45464350	     -6.83821661	    -61.94554666	    -12.19180258	    -15.55074284	     20.82201265	     18.25274100	      7.75198307	     -0.14923538	    -18.53928209	      3.32491934	    -16.40225043	     -4.01666234	      7.73395501	     -4.72039775	     -0.08722120
      3.86000000	    -10.92486705	      4.73422591	     -1.47834061	     -0.77577046	     -0.01867038	     -0.30631882	     28.79964247	     -8.15125439	     -6.95131984	    -61.20075831	    -11.79104640	    -15.44250729	     22.49311436	     17.27188985	      7.59481645	      0.13959140	    -17.97083566	      3.48639063	    -16.47594012	     -4.45132312	      7.46043152	     -4.42716300	     -0.26704306
      3.86500000	    -10.99280993	      4.43000041	     -1.29943915	     -0.76883207	     -0.01793899	     -0.30684723	     29.50291879	     -7.81596196	     -7.16437654	    -60.47336257	    -11.16418362	    -15.22225232	     22.75491969	     16.65565004	      7.36234732	      0.34416747	    -17.55242765	      3.74147787	    -16.30711704	     -4.43855369	      7.43176641	     -4.10699398	     -0.58305604
      3.87000000	    -10.94384607	      4.15697773	     -1.15032988	     -0.76181990	     -0.01711792	     -0.30738725	     30.04438157	     -7.51659696	     -7.35206758	    -59.64500013	    -10.61039756	    -15.03863527	     23.01168864	     15.87150096	      7.16502117	      0.57843013	    -17.05824723	      3.91837157	    -16.24046990	     -4.49161987	      7.29056071	     -3.80749710	     -0.83423957
      3.87500000	    -10.91487377	      3.89191114	     -1.01230126	     -0.75484352	     -0.01638831	     -0.30785982	     30.59252792	     -7.20704138	     -7.49740056	    -58.74685571	    -10.14729317	    -14.90923922	     23.18061769	     15.11661023	      6.96146669	      0.78418220	    -16.56538735	      4.06998625	    -16.18829709	     -4.55196624	      7.16435346	     -3.52038410	     -1.11772085
      3.88000000	    -10.97740337	      3.66933662	     -0.93059601	     -0.74786895	     -0.01587089	     -0.30823428	     31.24584642	     -6.90284519	     -7.56810729	    -57.79923083	     -9.74979399	    -14.87927520	     23.24217795	     14.46720943	      6.77796980	      0.92101893	    -16.07396517	      4.19108693	    -16.16528839	     -4.58486251	      7.14395443	     -3.26516672	     -1.25327479
      3.88500000	    -10.86137003	      3.41068963	     -0.70482981	     -0.74084745	     -0.01518738	     -0.30880390	     31.60570847	     -6.66853201	     -7.79640993	    -56.72988323	     -9.34637779	    -14.74285114	     23.31591634	     13.61220454	      6.59316593	      1.17141019	    -15.57262545	      4.38078712	    -16.04321906	     -4.65579791	      6.92184108	     -2.99829870	     -1.64405877
      3.89000000	    -10.93123947	      3.22495291	     -0.61935735	     -0.73386303	     -0.01485293	     -0.30917716	     32.21710743	     -6.41170332	     -7.83240793	    -55.64778597	     -9.05044249	    -14.70903305	     23.31440815	     12.97121171	      6.44015859	      1.25256166	    -15.07160459	      4.51216767	    -16.01280918	     -4.69728988	      6.91107267	     -2.77259759	     -1.81348465
      3.89500000	    -10.85298008	      3.00541490	     -0.41139451	     -0.72687271	     -0.01436014	     -0.30961686	     32.57284666	     -6.19340055	     -7.99178206	    -54.43818539	     -8.74741375	    -14.63954513	     23.24292827	     12.16807034	      6.26516965	      1.42859171	    -14.57670574	      4.68387308	    -15.82041101	     -4.76014755	      6.72403379	     -2.55287544	     -2.15372998
      3.90000000	    -10.84891560	      2.83475562	     -0.26976529	     -0.71989022	     -0.01407213	     -0.30996710	     33.01532395	     -5.98276298	     -8.05008567	    -53.18862072	     -8.49638419	    -14.59076849	     23.09668942	     11.45104802	      6.12085110	      1.49601750	    -14.08233724	      4.85319666	    -15.65909637	     -4.81680024	      6.62660583	     -2.36627092	     -2.39912801
      3.90500000	    -10.88193643	      2.68359603	     -0.12555022	     -0.71293309	     -0.01391149	     -0.31028322	     33.47650417	     -5.79140485	     -8.08370850	    -51.88131431	     -8.27158511	    -14.51913436	     22.90833315	     10.78268559	      5.98865355	      1.52239071	    -13.59413241	      5.01834342	    -15.46795818	     -4.83882309	      6.56263073	     -2.20457627	     -2.64526014
      3.91000000	    -11.00475483	      2.58730384	     -0.01374849	     -0.70599842	     -0.01396737	     -0.31057102	     34.03143917	     -5.63389899	     -8.03451607	    -50.53008558	     -8.07449517	    -14.44981114	     22.80817252	     10.22740300	      5.91154307	      1.45977315	    -13.11864087	      5.11943169	    -15.37154229	     -4.84380186	      6.59588478	     -2.08520550	     -2.87998423
